<?xml version="1.0" encoding="UTF-8" standalone="no"?>
<svg
 xmlns:dc="http://purl.org/dc/elements/1.1/"
 xmlns:cc="http://creativecommons.org/ns#"
 xmlns:rdf="http://www.w3.org/1999/02/22-rdf-syntax-ns#"
 xmlns:svg="http://www.w3.org/2000/svg"
 xmlns="http://www.w3.org/2000/svg"
 xmlns:sodipodi="http://sodipodi.sourceforge.net/DTD/sodipodi-0.dtd"
 xmlns:inkscape="http://www.inkscape.org/namespaces/inkscape"
 version="1.1"
 id="svg2"
 viewBox="0 0 100 100"
 height="100"
 width="100"
 inkscape:version="0.91 r13725"
 sodipodi:docname="circle.svg">
<sodipodi:namedview
 pagecolor="#ffffff"
 bordercolor="#666666"
 borderopacity="1"
 objecttolerance="10"
 gridtolerance="10"
 guidetolerance="10"
 inkscape:pageopacity="0"
 inkscape:pageshadow="2"
 inkscape:window-width="664"
 inkscape:window-height="480"
 id="namedview4141"
 showgrid="false"
 inkscape:zoom="5.54"
 inkscape:cx="50"
 inkscape:cy="50"
 inkscape:window-x="281"
 inkscape:window-y="7"
 inkscape:window-maximized="0"
 inkscape:current-layer="svg2" />
<defs
 id="defs4" />
<metadata
 id="metadata7">
<rdf:RDF>
<cc:Work
 rdf:about="">
<dc:format>image/svg+xml</dc:format>
<dc:type
 rdf:resource="http://purl.org/dc/dcmitype/StillImage" />
<dc:title />
</cc:Work>
</rdf:RDF>
</metadata>
<g
 transform="translate(0,-952.36216)"
 id="layer1">
<path
 id="path4357"
 d="m 24.909747,964.99756 a 12.364621,12.635379 0 0 1 -12.364621,12.63538 12.364621,12.635379 0 0 1 -12.3646212,-12.63538 12.364621,12.635379 0 0 1 12.3646212,-12.63538 12.364621,12.635379 0 0 1 12.364621,12.63538 z"
 style="fill:#0000ff;stroke:none;stroke-opacity:1" />
</g>
<path
 style="fill:#ffff00;stroke:none;stroke-width:1.12451792;stroke-opacity:1"
 d="m 40.370955,29.061371 a 6.1651783,5.7139144 0 0 1 -6.165179,5.713914 6.1651783,5.7139144 0 0 1 -6.165178,-5.713914 6.1651783,5.7139144 0 0 1 6.165178,-5.713915 6.1651783,5.7139144 0 0 1 6.165179,5.713915 z"
 id="path4143" />
</svg>
