<?xml version="1.0" encoding="UTF-8" standalone="no"?>
<!-- Created with Inkscape (http://www.inkscape.org/) -->

<svg
 xmlns:dc="http://purl.org/dc/elements/1.1/"
 xmlns:cc="http://creativecommons.org/ns#"
 xmlns:rdf="http://www.w3.org/1999/02/22-rdf-syntax-ns#"
 xmlns:svg="http://www.w3.org/2000/svg"
 xmlns="http://www.w3.org/2000/svg"
 xmlns:sodipodi="http://sodipodi.sourceforge.net/DTD/sodipodi-0.dtd"
 xmlns:inkscape="http://www.inkscape.org/namespaces/inkscape"
 width="100"
 height="100"
 viewBox="0 0 100 100"
 id="svg2"
 version="1.1"
 inkscape:version="0.91 r13725"
 sodipodi:docname="dracoInkspace.svg">
<defs
 id="defs4">
<inkscape:path-effect
 effect="skeletal"
 id="path-effect3529"
 is_visible="true"
 pattern="m 0,957.36213 c 0,-2.76 2.24,-5 5,-5 2.76,0 5,2.24 5,5 0,2.76 -2.24,5 -5,5 -2.76,0 -5,-2.24 -5,-5 z"
 copytype="single_stretched"
 prop_scale="1"
 scale_y_rel="false"
 spacing="0"
 normal_offset="0"
 tang_offset="0"
 prop_units="false"
 vertical_pattern="false"
 fuse_tolerance="0" />
</defs>
<sodipodi:namedview
 id="base"
 pagecolor="#ffffff"
 bordercolor="#666666"
 borderopacity="1.0"
 inkscape:pageopacity="0.0"
 inkscape:pageshadow="2"
 inkscape:zoom="5.54"
 inkscape:cx="50"
 inkscape:cy="50"
 inkscape:document-units="px"
 inkscape:current-layer="layer1"
 showgrid="false"
 inkscape:window-width="1228"
 inkscape:window-height="756"
 inkscape:window-x="60"
 inkscape:window-y="1"
 inkscape:window-maximized="0"
 units="px"
 showborder="true" />
<metadata
 id="metadata7">
<rdf:RDF>
<cc:Work
 rdf:about="">
<dc:format>image/svg+xml</dc:format>
<dc:type
 rdf:resource="http://purl.org/dc/dcmitype/StillImage" />
<dc:title></dc:title>
</cc:Work>
</rdf:RDF>
</metadata>
<g
 inkscape:label="Layer 1"
 inkscape:groupmode="layer"
 id="layer1"
 transform="translate(0,-952.36213)">
<ellipse
 style="fill:#0000ff;stroke:#0000ea;stroke-opacity:1"
 id="path3469"
 cx="38.267147"
 cy="977.72314"
 rx="9.0252705"
 ry="0.63176894" />
<ellipse
 style="fill:#0000ff;stroke:#0000ea;stroke-opacity:1"
 id="path3471"
 cx="52.617329"
 cy="975.19604"
 rx="7.3104692"
 ry="7.1299639" />
<path
 style="fill:#0000ff;stroke:#0000ea;stroke-opacity:1"
 id="path3473"
 sodipodi:type="arc"
 sodipodi:cx="61.28159"
 sodipodi:cy="968.0661"
 sodipodi:rx="4.4223828"
 sodipodi:ry="2.8880866"
 sodipodi:start="0.86945789"
 sodipodi:end="5.959918"
 d="m 64.135091,970.27254 a 4.4223828,2.8880866 0 0 1 -5.244712,0.22305 4.4223828,2.8880866 0 0 1 -1.867282,-3.20844 4.4223828,2.8880866 0 0 1 4.147564,-2.10823 4.4223828,2.8880866 0 0 1 4.304243,1.96973 l -4.193314,0.91745 z" />
<ellipse
 style="fill:#ff0000;stroke:#0000ea;stroke-opacity:1"
 id="path3475"
 cx="965.62927"
 cy="-52.436821"
 rx="6.0469313"
 ry="3.3393502"
 transform="matrix(0,1,-1,0,0,0)" />
<ellipse
 style="fill:#0000ff;stroke:#0000ea;stroke-opacity:1"
 id="path3479"
 cx="50.451263"
 cy="984.04083"
 rx="0.99277979"
 ry="2.2563176" />
<ellipse
 style="fill:#0000ff;stroke:#0000ea;stroke-opacity:1"
 id="path3481"
 cx="55.415161"
 cy="984.13104"
 rx="1.2635379"
 ry="2.3465705" />
<path
 style="fill:#ff0000;stroke:#0000ea;stroke-width:1.13248765;stroke-opacity:1"
 d="m 47.992647,963.85805 a 9.6226346,3.9865398 28.925546 0 0 -10.092852,-0.85016 9.6226346,3.9865398 28.925546 0 0 6.88706,8.18266 9.6226346,3.9865398 28.925546 0 0 10.092871,0.85012 9.6226346,3.9865398 28.925546 0 0 -6.887079,-8.18262 z"
 id="path3518"
 inkscape:connector-curvature="0" />
<ellipse
 style="fill:#2b0000;stroke:none;stroke-opacity:1"
 id="path3533"
 cx="60.649818"
 cy="966.53174"
 rx="0.7220214"
 ry="0.99277949" />
</g>
</svg>
