<?xml version="1.0" encoding="UTF-8" standalone="no"?>
<svg
 xmlns:dc="http://purl.org/dc/elements/1.1/"
 xmlns:cc="http://creativecommons.org/ns#"
 xmlns:rdf="http://www.w3.org/1999/02/22-rdf-syntax-ns#"
 xmlns:svg="http://www.w3.org/2000/svg"
 xmlns="http://www.w3.org/2000/svg"
 width="100"
 height="100"
 viewBox="0 0 100 100"
 id="svg2"
 version="1.1">
<defs
 id="defs4" />
<metadata
 id="metadata7">
<rdf:RDF>
<cc:Work
 rdf:about="">
<dc:format>image/svg+xml</dc:format>
<dc:type
 rdf:resource="http://purl.org/dc/dcmitype/StillImage" />
<dc:title></dc:title>
</cc:Work>
</rdf:RDF>
</metadata>
<g
 id="layer1"
 transform="translate(0,-952.36213)">
<ellipse
 style="fill:#0000ff;stroke:#0000ea;stroke-opacity:1"
 id="path3469"
 cx="38.267147"
 cy="977.72314"
 rx="9.0252705"
 ry="0.63176894" />
<ellipse
 style="fill:#0000ff;stroke:#0000ea;stroke-opacity:1"
 id="path3471"
 cx="52.617329"
 cy="975.19604"
 rx="7.3104692"
 ry="7.1299639" />
<path
 style="fill:#0000ff;stroke:#0000ea;stroke-opacity:1"
 id="path3473"
 d="m 64.135091,970.27254 a 4.4223828,2.8880866 0 0 1 -5.244712,0.22305 4.4223828,2.8880866 0 0 1 -1.867282,-3.20844 4.4223828,2.8880866 0 0 1 4.147564,-2.10823 4.4223828,2.8880866 0 0 1 4.304243,1.96973 l -4.193314,0.91745 z" />
<ellipse
 style="fill:#ff0000;stroke:#0000ea;stroke-opacity:1"
 id="path3475"
 cx="965.62927"
 cy="-52.436821"
 rx="6.0469313"
 ry="3.3393502"
 transform="matrix(0,1,-1,0,0,0)" />
<ellipse
 style="fill:#0000ff;stroke:#0000ea;stroke-opacity:1"
 id="path3479"
 cx="50.451263"
 cy="984.04083"
 rx="0.99277979"
 ry="2.2563176" />
<ellipse
 style="fill:#0000ff;stroke:#0000ea;stroke-opacity:1"
 id="path3481"
 cx="55.415161"
 cy="984.13104"
 rx="1.2635379"
 ry="2.3465705" />
<path
 style="fill:#ff0000;stroke:#0000ea;stroke-width:1.13248765;stroke-opacity:1"
 d="m 47.992647,963.85805 a 9.6226346,3.9865398 28.925546 0 0 -10.092852,-0.85016 9.6226346,3.9865398 28.925546 0 0 6.88706,8.18266 9.6226346,3.9865398 28.925546 0 0 10.092871,0.85012 9.6226346,3.9865398 28.925546 0 0 -6.887079,-8.18262 z"
 id="path3518" />
<ellipse
 style="fill:#2b0000;stroke:none;stroke-opacity:1"
 id="path3533"
 cx="60.649818"
 cy="966.53174"
 rx="0.7220214"
 ry="0.99277949" />
</g>
<path
 id="path3400"
 d="m 62.997883,17.072198 c 7.057747,-2.7582 10.943571,-4.276797 13.08301,-5.1129 l -2.436864,2.155687 c -0.602216,-0.01882 -2.368885,-0.07403 -2.368885,-0.07403 l -0.03123,0.999512 c 0,0 0.641798,0.02006 2.567185,0.08022 2.888236,0.09026 4.377655,0.135392 5.145325,0.157971 0.38378,0.01129 0.587399,0.01694 0.695364,0.01979 0.113345,0.003 0.109368,0.003 0.13161,0.003 l -6.31769,2.34657 a 0.34653342,0.13477351 36.966799 0 0 -0.260725,-0.07336 l 0.96105,0.587308 -11.260701,-2.0474 z m -0.271441,0.02623 13.898917,2.527076 a 0.5,0.5 0 0 0 0.350168,-0.918576 l -3.249098,-1.98556 a 0.34653342,0.13477351 36.966799 0 0 -0.260725,-0.07336 l 6.317688,-2.346569 c 0.02224,-10e-7 -0.0043,1e-5 -0.105301,-0.0026 -0.106385,-0.0028 -0.308904,-0.0084 -0.692272,-0.0197 -0.766626,-0.02255 -2.255547,-0.06767 -5.143487,-0.157915 -1.92539,-0.06017 -2.567188,-0.08022 -2.567188,-0.08022 l -0.03123,0.999512 c 0,0 2.567188,0.08022 2.567188,0.08022 a 0.5,0.5 0 0 0 0.346904,-0.125258 l 4.693141,-4.151624 a 0.5,0.5 0 0 0 -0.513285,-0.840198 c 0,0 0,0 -15.703971,6.137184 z"
 style="fill:#ffff00;fill-rule:evenodd;stroke:none;stroke-width:1px;stroke-linecap:butt;stroke-linejoin:miter;stroke-opacity:1" />
</svg>
