<?xml version="1.0" encoding="UTF-8" standalone="no"?>
<svg
 xmlns:dc="http://purl.org/dc/elements/1.1/"
 xmlns:cc="http://creativecommons.org/ns#"
 xmlns:rdf="http://www.w3.org/1999/02/22-rdf-syntax-ns#"
 xmlns:svg="http://www.w3.org/2000/svg"
 xmlns="http://www.w3.org/2000/svg"
 version="1.1"
 id="svg2"
 viewBox="0 0 100 100"
 height="100"
 width="100">
<defs
 id="defs4" />
<metadata
 id="metadata7">
<rdf:RDF>
<cc:Work
 rdf:about="">
<dc:format>image/svg+xml</dc:format>
<dc:type
 rdf:resource="http://purl.org/dc/dcmitype/StillImage" />
<dc:title></dc:title>
</cc:Work>
</rdf:RDF>
</metadata>
<g
 transform="translate(0,-952.36213)"
 id="layer1">
<ellipse
 ry="0.63176894"
 rx="9.0252705"
 cy="977.72314"
 cx="38.267147"
 id="path3469"
 style="fill:#0000ff;stroke:#0000ea;stroke-opacity:1" />
<ellipse
 ry="7.1299639"
 rx="7.3104692"
 cy="975.19604"
 cx="52.617329"
 id="path3471"
 style="fill:#0000ff;stroke:#0000ea;stroke-opacity:1" />
<path
 d="m 64.135091,970.27254 a 4.4223828,2.8880866 0 0 1 -5.244712,0.22305 4.4223828,2.8880866 0 0 1 -1.867282,-3.20844 4.4223828,2.8880866 0 0 1 4.147564,-2.10823 4.4223828,2.8880866 0 0 1 4.304243,1.96973 l -4.193314,0.91745 z"
 id="path3473"
 style="fill:#0000ff;stroke:#0000ea;stroke-opacity:1" />
<ellipse
 transform="matrix(0,1,-1,0,0,0)"
 ry="3.3393502"
 rx="6.0469313"
 cy="-52.436821"
 cx="965.62927"
 id="path3475"
 style="fill:#ff0000;stroke:#0000ea;stroke-opacity:1" />
<ellipse
 ry="2.2563176"
 rx="0.99277979"
 cy="984.04083"
 cx="50.451263"
 id="path3479"
 style="fill:#0000ff;stroke:#0000ea;stroke-opacity:1" />
<ellipse
 ry="2.3465705"
 rx="1.2635379"
 cy="984.13104"
 cx="55.415161"
 id="path3481"
 style="fill:#0000ff;stroke:#0000ea;stroke-opacity:1" />
<path
 id="path3518"
 d="m 47.992647,963.85805 a 9.6226346,3.9865398 28.925546 0 0 -10.092852,-0.85016 9.6226346,3.9865398 28.925546 0 0 6.88706,8.18266 9.6226346,3.9865398 28.925546 0 0 10.092871,0.85012 9.6226346,3.9865398 28.925546 0 0 -6.887079,-8.18262 z"
 style="fill:#ff0000;stroke:#0000ea;stroke-width:1.13248765;stroke-opacity:1" />
<ellipse
 ry="0.99277949"
 rx="0.7220214"
 cy="966.53174"
 cx="60.649818"
 id="path3533"
 style="fill:#2b0000;stroke:none;stroke-opacity:1" />
</g>
</svg>
