<?xml version="1.0" encoding="UTF-8" standalone="no"?>
<!-- Created with Inkscape (http://www.inkscape.org/) -->

<svg
   xmlns:dc="http://purl.org/dc/elements/1.1/"
   xmlns:cc="http://creativecommons.org/ns#"
   xmlns:rdf="http://www.w3.org/1999/02/22-rdf-syntax-ns#"
   xmlns:svg="http://www.w3.org/2000/svg"
   xmlns="http://www.w3.org/2000/svg"
   xmlns:sodipodi="http://sodipodi.sourceforge.net/DTD/sodipodi-0.dtd"
   xmlns:inkscape="http://www.inkscape.org/namespaces/inkscape"
   width="210mm"
   height="297mm"
   viewBox="0 0 744.09448819 1052.3622047"
   id="svg2"
   version="1.1"
   inkscape:version="0.91 r13725"
   sodipodi:docname="spout.svg">
  <defs
     id="defs4" />
  <sodipodi:namedview
     id="base"
     pagecolor="#ffffff"
     bordercolor="#666666"
     borderopacity="1.0"
     inkscape:pageopacity="0.0"
     inkscape:pageshadow="2"
     inkscape:zoom="0.35"
     inkscape:cx="375"
     inkscape:cy="291.42857"
     inkscape:document-units="px"
     inkscape:current-layer="layer1"
     showgrid="false"
     inkscape:window-width="1227"
     inkscape:window-height="756"
     inkscape:window-x="0"
     inkscape:window-y="0"
     inkscape:window-maximized="0" />
  <metadata
     id="metadata7">
    <rdf:RDF>
      <cc:Work
         rdf:about="">
        <dc:format>image/svg+xml</dc:format>
        <dc:type
           rdf:resource="http://purl.org/dc/dcmitype/StillImage" />
      </cc:Work>
    </rdf:RDF>
  </metadata>
  <g
     inkscape:label="Layer 1"
     inkscape:groupmode="layer"
     id="layer1">
    <path
       style="fill:none;fill-rule:evenodd;stroke:#000000;stroke-width:1px;stroke-linecap:butt;stroke-linejoin:miter;stroke-opacity:1"
       d="m 57.142857,403.79078 c -2.984614,-9.78403 8.701368,-8.83131 11.428572,-14.28572 0.425917,-0.85183 -0.425918,-2.00531 0,-2.85714 0.43222,-0.86444 10.56413,-10.99635 11.428571,-11.42857 0.851835,-0.42592 2.183708,0.67343 2.857143,0 0.673435,-0.67344 -0.425918,-2.00531 0,-2.85715 1.405755,-2.81151 10.022816,-8.61706 11.428571,-11.42857 0.425918,-0.85183 -0.673435,-2.1837 0,-2.85714 0.673435,-0.67343 2.183708,0.67344 2.857143,0 0.673435,-0.67343 -0.673435,-2.18371 0,-2.85714 0.673435,-0.67344 2.183708,0.67343 2.857143,0 0.67344,-0.67344 -0.673435,-2.18371 0,-2.85715 0.67344,-0.67343 2.18371,0.67344 2.85714,0 0.67344,-0.67343 -0.30117,-1.95363 0,-2.85714 0.67344,-2.0203 1.3513,-4.20844 2.85715,-5.71428 5.91153,-5.91153 -0.23109,9.0336 5.71428,-2.85715 0.42592,-0.85183 -0.42592,-2.0053 0,-2.85714 1.20468,-2.40935 4.50961,-3.30493 5.71429,-5.71429 0.42591,-0.85183 -0.42592,-2.0053 0,-2.85714 1.3076,-2.6152 6.48345,-5.01829 8.57143,-5.71428 0.9035,-0.30117 2.0053,0.42591 2.85714,0 2.40935,-1.20468 3.47296,-4.22007 5.71428,-5.71429 1.77193,-1.18128 4.20844,-1.3513 5.71429,-2.85714 0.67344,-0.67344 -0.67344,-2.18371 0,-2.85715 1.50585,-1.50584 3.94236,-1.67585 5.71429,-2.85714 1.12066,-0.74711 1.73647,-2.11003 2.85714,-2.85714 14.43373,-9.62249 0.0662,-0.0221 8.57143,-2.85714 2.0203,-0.67344 3.69398,-2.18371 5.71428,-2.85715 0.90351,-0.30117 2.00531,0.42592 2.85715,0 2.40935,-1.20467 3.15878,-4.86245 5.71428,-5.71428 1.80702,-0.60234 3.90727,0.60234 5.71429,0 1.27775,-0.42592 1.90476,-1.90476 2.85714,-2.85715 2.85714,0 5.76977,0.56034 8.57143,0 2.08823,-0.41764 3.71291,-2.12937 5.71428,-2.85714 6.42359,-25.46199 21.127,-5.13757 31.42858,-8.57143 1.27775,-0.42591 1.65246,-2.2548 2.85714,-2.85714 1.8935,-0.94675 9.03393,0.79822 11.42857,0 2.02031,-0.67343 3.64828,-2.34064 5.71429,-2.85714 2.17276,-0.54319 11.89317,0 14.28571,0 0.95238,0 1.9332,0.23098 2.85714,0 2.92177,-0.73045 5.61822,-2.2665 8.57143,-2.85715 1.86777,-0.37355 3.80953,0 5.71429,0 0.95238,0 2.0053,0.42592 2.85714,0 1.20468,-0.60233 1.65247,-2.2548 2.85714,-2.85714 1.67393,-0.83696 12.18029,0.52636 14.28572,0 2.066,-0.5165 3.64828,-2.34064 5.71428,-2.85714 1.84789,-0.46197 3.80953,0 5.71429,0 4.7619,0 9.52381,0 14.28571,0 18.09524,0 36.19048,0 54.28572,0 15.23809,0 30.47619,0 45.71428,0 5.71429,0 11.42857,0 17.14286,0 1.90476,0 3.8664,-0.46197 5.71429,0 2.066,0.5165 3.64828,2.34064 5.71428,2.85714 13.00653,0 0.1634,-1.34687 8.57143,2.85714 1.70367,0.85184 4.36742,-1.34687 5.71429,0 0.67343,0.67344 -0.85184,2.43123 0,2.85715 1.70367,0.85183 3.90727,-0.60234 5.71428,0 1.27775,0.42592 1.65247,2.2548 2.85714,2.85714 0.85184,0.42592 1.95364,-0.30117 2.85715,0 2.0203,0.67344 3.69398,2.18371 5.71428,2.85714 0.90351,0.30117 2.00531,-0.42591 2.85715,0 3.07133,1.53567 5.82434,3.65397 8.57142,5.71429 1.0775,0.80812 1.57939,2.43122 2.85715,2.85714 1.80701,0.60234 3.86639,-0.46197 5.71428,0 2.06601,0.5165 3.80953,1.90476 5.71429,2.85714 1.90476,0.95239 3.94236,1.67586 5.71428,2.85715 2.24133,1.49422 3.30494,4.50961 5.71429,5.71428 7.037,3.51851 -2.57924,-8.29352 8.57143,2.85715 0.67343,0.67343 -0.67344,2.1837 0,2.85714 1.34687,1.34687 4.01061,-0.85184 5.71428,0 2.40936,1.20468 3.30494,4.50961 5.71429,5.71428 1.70367,0.85184 4.01061,-0.85183 5.71429,0 3.01176,1.50589 2.70252,4.20841 5.71428,5.71429 3.94102,1.97051 2.55564,-3.46016 5.71429,2.85714 0.42591,0.85184 -0.67344,2.18371 0,2.85715 0.67343,0.67343 1.95363,-0.30117 2.85714,0 2.02031,0.67343 4.20844,1.35129 5.71429,2.85714 0.67343,0.67343 -0.67344,2.18371 0,2.85714 0.67343,0.67344 2.1837,-0.67343 2.85714,0 0.67343,0.67344 -0.67344,2.18371 0,2.85714 0.67343,0.67344 2.00531,-0.42591 2.85714,0 1.20468,0.60234 1.65247,2.25481 2.85714,2.85715 0.85184,0.42592 2.18371,-0.67344 2.85715,0 5.91153,5.91153 -9.0336,-0.23109 2.85714,5.71428 0.85184,0.42592 2.18371,-0.67343 2.85714,0 0.67344,0.67344 -0.42591,2.00531 0,2.85715 0.60234,1.20467 2.25481,1.65246 2.85715,2.85714 0.42591,0.85183 -0.67344,2.18371 0,2.85714 0.67343,0.67344 2.1837,-0.67343 2.85714,0 0.67343,0.67344 -0.67344,2.18371 0,2.85714 0.67343,0.67344 2.18371,-0.67343 2.85714,0 0.67344,0.67344 -0.67343,2.18371 0,2.85715 0.67344,0.67343 2.18371,-0.67344 2.85714,0 0.67344,0.67343 -0.67343,2.18371 0,2.85714 0.67344,0.67344 2.18371,-0.67343 2.85715,0 0.67343,0.67344 -0.67344,2.18371 0,2.85714 0.67343,0.67344 2.1837,-0.67343 2.85714,0 1.34687,1.34687 -1.34687,4.36742 0,5.71429 0.67344,0.67343 2.18371,-0.67344 2.85714,0 0.67344,0.67343 -0.67343,2.18371 0,2.85714 0.67344,0.67344 2.18371,-0.67343 2.85715,0 0.67343,0.67344 -0.42592,2.00531 0,2.85714 0.60233,1.20468 2.2548,1.65247 2.85714,2.85715 0.42592,0.85183 -0.67344,2.18371 0,2.85714 1.34687,1.34687 4.36741,-1.34687 5.71428,0 0.67344,0.67344 -0.42591,2.00531 0,2.85714 1.71429,3.42857 6.85715,5.14286 8.57143,8.57143 0.42592,0.85184 -0.67343,2.18371 0,2.85714 0.67344,0.67344 2.00531,-0.42591 2.85715,0 1.20467,0.60234 1.90476,1.90477 2.85714,2.85715 0.95238,0.95238 1.90476,1.90476 2.85714,2.85714 -1.90476,2.85714 -4.17862,5.50009 -5.71428,8.57143 -0.42592,0.85183 0.67343,2.18371 0,2.85714 -0.67344,0.67344 -2.18371,-0.67343 -2.85715,0 -1.42857,1.42857 1.42857,7.14286 0,8.57143 -0.67343,0.67344 -2.1837,-0.67343 -2.85714,0 -0.67344,0.67344 0.42592,2.00531 0,2.85714 -0.60234,1.20468 -2.85714,1.51028 -2.85714,2.85715 0,0.95238 2.85714,0.95238 2.85714,0 0,-0.95238 -2.00531,-0.42592 -2.85714,0 -1.20468,0.60233 -1.65247,2.2548 -2.85715,2.85714 -0.85183,0.42592 -2.0053,-0.42592 -2.85714,0 -1.20468,0.60234 -1.65246,2.2548 -2.85714,2.85714 -0.85184,0.42592 -2.00531,-0.42592 -2.85714,0 -3.07134,1.53567 -5.5001,4.17862 -8.57143,5.71429 -0.85184,0.42592 -1.90476,0 -2.85715,0 -0.95238,0 -1.90476,0 -2.85714,0 -5.71428,0 -11.42857,0 -17.14286,0 -10.47619,0 -20.95238,0 -31.42857,0 -1.12946,0 -13.06547,0.61012 -14.28571,0 -1.20468,-0.60234 -1.65247,-2.25481 -2.85714,-2.85715 -2.28572,-1.14285 -6.28572,1.14286 -8.57143,0 -1.20468,-0.60233 -1.57939,-2.43122 -2.85715,-2.85714 -1.80701,-0.60234 -4.01061,0.85184 -5.71428,0 -1.90476,-0.95238 3.36717,-6.78221 -2.85714,-5.71428 -1.80702,-0.60234 -4.01062,0.85183 -5.71429,0 -0.85184,-0.42592 0.67344,-2.18371 0,-2.85715 -0.67344,-0.67343 -2.00531,0.42592 -2.85714,0 -1.20468,-0.60234 -1.65247,-2.2548 -2.85715,-2.85714 -0.85183,-0.42592 -2.0053,0.42592 -2.85714,0 -3.42857,-1.71429 -5.14286,-6.85714 -8.57143,-8.57143 -0.85183,-0.42592 -2.0053,0.42592 -2.85714,0 -1.20468,-0.60234 -1.65247,-2.2548 -2.85714,-2.85714 -0.85184,-0.42592 -1.90476,0 -2.85715,0 -1.90476,0 -3.80952,0 -5.71428,0 -0.95238,0 2.85714,0.95238 2.85714,0 0,-0.95238 -1.95363,-0.30117 -2.85714,0 -2.02031,0.67343 -5.71429,0.72755 -5.71429,2.85714 0,1.90476 3.80953,0 5.71429,0 0.95238,0 -1.90476,0 -2.85714,0 -0.95239,0 -1.90477,0 -2.85715,0 -0.95238,0 -2.1837,-0.67343 -2.85714,0 -0.67344,0.67344 0.67344,2.18371 0,2.85714 -0.67344,0.67344 -2.00531,-0.42591 -2.85714,0 -1.20468,0.60234 -1.65247,2.25481 -2.85715,2.85715 -1.70367,0.85183 -4.01061,-0.85184 -5.71428,0 -1.20468,0.60234 -1.65247,2.2548 -2.85714,2.85714 -1.70368,0.85184 -4.01062,-0.85183 -5.71429,0 -1.20468,0.60234 -1.65247,2.2548 -2.85714,2.85714 -0.85184,0.42592 -2.00531,-0.42591 -2.85715,0 -2.40935,1.20468 -3.15878,4.86245 -5.71428,5.71429 -1.80702,0.60234 -3.80953,0 -5.71429,0 -0.95238,0 -2.0053,-0.42592 -2.85714,0 -1.20468,0.60234 -1.65247,2.2548 -2.85714,2.85714 -0.85184,0.42592 -1.90476,0 -2.85715,0 -1.90476,0 -3.90727,-0.60234 -5.71428,0 -1.27775,0.42592 -1.65247,2.25481 -2.85714,2.85714 -0.75127,0.37564 -9.93452,0 -11.42858,0 -8.57142,0 -17.14285,0 -25.71428,0 -9.52381,0 -19.04762,0 -28.57143,0 -3.30722,0 -11.73491,0.63771 -14.28571,0 -2.06601,-0.5165 -3.64829,-2.34064 -5.71429,-2.85714 -2.59013,-0.64753 -10.96666,0 -14.28571,0 -1.90477,0 -3.90727,0.60234 -5.71429,0 -1.27775,-0.42592 -1.65247,-2.2548 -2.85714,-2.85714 -1.70367,-0.85184 -3.90727,0.60234 -5.71429,0 -2.0203,-0.67344 -3.69398,-2.18371 -5.71428,-2.85714 -0.90351,-0.30117 -2.18371,0.67343 -2.85715,0 -0.67343,-0.67344 0.67344,-2.18371 0,-2.85715 -1.34687,-1.34687 -4.36741,1.34687 -5.71428,0 -0.67344,-0.67343 0.67343,-2.1837 0,-2.85714 -1.34687,-1.34687 -3.90727,0.60234 -5.71429,0 -2.0203,-0.67343 -3.94236,-1.67586 -5.71428,-2.85714 -2.24133,-1.49422 -3.30494,-4.50961 -5.71429,-5.71429 -0.85184,-0.42592 -2.00531,0.42592 -2.85714,0 -1.20468,-0.60234 -1.65247,-2.2548 -2.85715,-2.85714 -0.85183,-0.42592 -1.90476,0 -2.85714,0 -0.95238,0 -1.90476,0 -2.85714,0 -8.76042,0 -12.50977,-1.77595 -20,5.71428 -1.50585,1.50585 4.20844,-1.35129 5.71428,-2.85714 0.67344,-0.67343 -2.0053,-0.42592 -2.85714,0 -1.20468,0.60234 -1.65246,2.25481 -2.85714,2.85714 -0.85184,0.42592 -2.18371,-0.67343 -2.85714,0 -0.67344,0.67344 0.42591,2.00531 0,2.85715 -1.76529,3.53058 -2.75852,2.85714 -5.71429,2.85714 -7.61905,0 0.95238,-0.95238 -2.85714,2.85714 -1.34687,1.34687 -4.36742,-1.34687 -5.71429,0 -0.67343,0.67344 0.67344,2.18371 0,2.85715 -0.11497,0.11497 -10.37932,0 -11.42857,0 -10.43222,0 -21.02489,0.61198 -31.42857,0 -13.34424,-0.78496 -26.6623,-1.96797 -40,-2.85715 -1.51593,-0.10106 -7.50094,0.53525 -8.57143,0 -1.20468,-0.60234 -1.65247,-2.2548 -2.85714,-2.85714 -8.40803,-4.20401 3.76166,6.61881 -5.71429,-2.85714 -1.70367,-0.85184 -4.01061,0.85183 -5.71428,0 -1.20468,-0.60234 -1.65247,-2.25481 -2.85715,-2.85715 -1.70367,-0.85183 -4.367413,1.34687 -5.714283,0 -5.91153,-5.91153 9.033603,0.23109 -2.857143,-5.71428 -1.549964,-0.77498 -10.646794,0.78178 -11.428571,0 -0.673435,-0.67344 0.673435,-2.18371 0,-2.85714 -0.673435,-0.67344 -1.904762,0 -2.857143,0 -7.619048,0 -15.238095,0 -22.857143,0 z"
       id="path3342"
       inkscape:connector-curvature="0" />
    <path
       style="fill:none;fill-rule:evenodd;stroke:#000000;stroke-width:1px;stroke-linecap:butt;stroke-linejoin:miter;stroke-opacity:1"
       d="m 174.28571,378.07649 c 11.26935,5.76736 7.89695,-12.15613 14.28572,-14.28571 1.80701,-0.60234 3.90727,0.60233 5.71428,0 1.27776,-0.42592 1.73648,-2.11004 2.85715,-2.85715 20.71594,-10.35797 -4.51754,3.0117 8.57143,-5.71428 20.71594,-10.35798 -4.51754,3.01169 8.57142,-5.71429 1.77193,-1.18128 4.20844,-1.35129 5.71429,-2.85714 0.67344,-0.67344 -0.67344,-2.18371 0,-2.85714 11.15067,-11.15067 1.53442,0.66136 8.57143,-2.85715 1.20468,-0.60234 1.73648,-2.11003 2.85714,-2.85714 3.54385,-2.36257 7.88472,-3.35172 11.42857,-5.71429 1.12067,-0.7471 1.73648,-2.11003 2.85715,-2.85714 1.77192,-1.18128 3.80952,-1.90476 5.71428,-2.85714 1.90476,-0.95238 3.69398,-2.18371 5.71429,-2.85714 0.90351,-0.30117 2.0053,0.42591 2.85714,0 2.40935,-1.20468 3.30493,-4.50961 5.71429,-5.71429 0.85183,-0.42592 2.0053,0.42592 2.85714,0 1.20468,-0.60234 1.65246,-2.2548 2.85714,-2.85714 0.85184,-0.42592 2.00531,0.42592 2.85714,0 1.20468,-0.60234 1.73648,-2.11004 2.85715,-2.85715 1.77192,-1.18128 3.94236,-1.67585 5.71428,-2.85714 6.53801,-4.35867 -1.78654,-2.26163 8.57143,-5.71428 1.80702,-0.60234 4.36742,1.34687 5.71429,0 0.67343,-0.67344 -0.67344,-2.18371 0,-2.85715 1.34687,-1.34687 4.36741,1.34687 5.71428,0 0.67344,-0.67343 -0.67343,-2.1837 0,-2.85714 0.67344,-0.67343 1.95364,0.30117 2.85715,0 9.84918,-3.28306 2.11646,-2.85714 8.57142,-2.85714"
       id="path3344"
       inkscape:connector-curvature="0" />
    <path
       style="fill:none;fill-rule:evenodd;stroke:#000000;stroke-width:1px;stroke-linecap:butt;stroke-linejoin:miter;stroke-opacity:1"
       d="m 385.71429,292.3622 c 0.95238,3.80953 2.08704,7.57806 2.85714,11.42858 0.56033,2.80166 0,5.71428 0,8.57142 0,3.80953 0,7.61905 0,11.42858 0,13.33333 0,26.66666 0,40"
       id="path3346"
       inkscape:connector-curvature="0" />
    <path
       style="fill:none;fill-rule:evenodd;stroke:#000000;stroke-width:1px;stroke-linecap:butt;stroke-linejoin:miter;stroke-opacity:1"
       d="m 420,309.50506 c 13.33333,0 26.66667,0 40,0 9.52381,0 19.04762,0 28.57143,0 2.85714,0 5.71428,0 8.57143,0 2.85714,0 5.8609,-0.90351 8.57143,0 0.9035,0.30117 -0.67344,2.18371 0,2.85714 1.34687,1.34687 4.01061,-0.85183 5.71428,0 13.07602,6.53802 -12.12405,-1.1842 8.57143,5.71429 1.80702,0.60234 4.36742,-1.34687 5.71429,0 0.67343,0.67344 -0.67344,2.18371 0,2.85714 0.67343,0.67344 2.1837,-0.67343 2.85714,0 0.67343,0.67344 -0.67344,2.18371 0,2.85715 0.67343,0.67343 2.00531,-0.42592 2.85714,0 11.89075,5.94537 -3.05439,-0.19725 2.85714,5.71428 0.67344,0.67344 2.18371,-0.67343 2.85715,0 0.67343,0.67344 -0.67344,2.18371 0,2.85714 0.67343,0.67344 2.1837,-0.67343 2.85714,0 1.34687,1.34687 -0.85184,4.01062 0,5.71429 0.60234,1.20468 2.43123,1.57939 2.85714,2.85714 1.20468,3.61403 -0.92394,7.73279 0,11.42857 1.90476,5.71429 3.80953,11.42858 5.71429,17.14286 0.95238,0.95238 2.2548,1.65247 2.85714,2.85714 0.42592,0.85184 -0.42592,2.00531 0,2.85715 0.60234,1.20467 2.25481,1.65246 2.85714,2.85714 1.79701,3.59401 -4.10342,5.71429 2.85715,5.71429"
       id="path3348"
       inkscape:connector-curvature="0" />
    <path
       style="fill:none;fill-rule:evenodd;stroke:#000000;stroke-width:1px;stroke-linecap:butt;stroke-linejoin:miter;stroke-opacity:1"
       d="m 277.14286,420.93363 c 0.74357,8.70787 4.01109,17.19835 5.71428,25.71429 1.13612,5.68061 1.72102,11.46225 2.85715,17.14286 1.5402,7.70102 4.01061,15.19062 5.71428,22.85714 1.05346,4.74057 1.90476,9.52381 2.85714,14.28571 0.95239,4.76191 2.21533,9.47211 2.85715,14.28572 1.26498,9.48735 1.59216,19.08408 2.85714,28.57143 0.64181,4.81361 1.90476,9.52381 2.85714,14.28571 0.95238,4.76191 1.80369,9.54515 2.85715,14.28571 1.70367,7.66652 3.80952,15.2381 5.71428,22.85715 0.95238,3.80952 1.61539,7.70331 2.85714,11.42857 0.67344,2.0203 2.34065,3.64828 2.85715,5.71428 0.46197,1.8479 0,3.80953 0,5.71429 0,0.95238 -0.42592,2.00531 0,2.85714 3.53058,7.06116 2.85714,-0.98622 2.85714,5.71429"
       id="path3475"
       inkscape:connector-curvature="0" />
    <path
       style="fill:none;fill-rule:evenodd;stroke:#000000;stroke-width:1px;stroke-linecap:butt;stroke-linejoin:miter;stroke-opacity:1"
       d="m 357.14286,438.07649 c -1.55356,8.48048 4.42317,15.11046 5.71428,22.85714 0.46971,2.81827 -0.46971,5.75316 0,8.57143 0.49512,2.97072 2.36203,5.60071 2.85715,8.57143 0.93942,5.63654 -0.93943,11.50632 0,17.14286 0.49511,2.97071 2.2665,5.61822 2.85714,8.57143 0.37355,1.86777 0,3.80952 0,5.71428 0,4.76191 0,9.52381 0,14.28572 0,14.28571 0,28.57142 0,42.85714 0,9.52381 0,19.04762 0,28.57143 0,1.90476 0,3.80952 0,5.71428 0,0.95238 0.95238,2.85715 0,2.85715 -0.95238,0 0,-3.80953 0,-2.85715 0,0.97336 -0.51544,9.88227 0,11.42857 3.28306,9.84919 2.85714,2.11647 2.85714,8.57143"
       id="path3477"
       inkscape:connector-curvature="0" />
    <path
       style="fill:none;fill-rule:evenodd;stroke:#000000;stroke-width:1px;stroke-linecap:butt;stroke-linejoin:miter;stroke-opacity:1"
       d="m 414.28571,426.64792 c 1.57505,7.52099 -0.94502,15.29693 0,22.85714 0.60234,4.81871 2.32087,9.45921 2.85715,14.28572 0.42069,3.78622 0,7.61904 0,11.42857 0,11.42857 0,22.85714 0,34.28571 0,9.52381 0,19.04762 0,28.57143 0,2.85714 -0.40406,5.743 0,8.57143 0.55533,3.8873 2.21158,7.55523 2.85714,11.42857 0.62628,3.75769 0,7.61905 0,11.42857 0,8.57143 0,17.14286 0,25.71429 0,2.85714 0,5.71428 0,8.57143 0,0.95238 0.95238,2.85714 0,2.85714 -0.95238,0 0,-3.80952 0,-2.85714 0,1.90476 0,3.80952 0,5.71428"
       id="path3479"
       inkscape:connector-curvature="0" />
  </g>
</svg>
