<?xml version="1.0" encoding="UTF-8" standalone="no"?>
<!-- Created with Inkscape (http://www.inkscape.org/) -->

<svg
   xmlns:dc="http://purl.org/dc/elements/1.1/"
   xmlns:cc="http://creativecommons.org/ns#"
   xmlns:rdf="http://www.w3.org/1999/02/22-rdf-syntax-ns#"
   xmlns:svg="http://www.w3.org/2000/svg"
   xmlns="http://www.w3.org/2000/svg"
   xmlns:sodipodi="http://sodipodi.sourceforge.net/DTD/sodipodi-0.dtd"
   xmlns:inkscape="http://www.inkscape.org/namespaces/inkscape"
   width="100"
   height="99"
   viewBox="0 0 100 99"
   id="svg2"
   version="1.1"
   inkscape:version="0.91 r13725"
   sodipodi:docname="testdrw.svg">
  <defs
     id="defs4">
    <inkscape:path-effect
       effect="skeletal"
       id="path-effect3453"
       is_visible="true"
       pattern="m 0,958.36216 c 0,-2.76 2.24,-5 5,-5 2.76,0 5,2.24 5,5 0,2.76 -2.24,5 -5,5 -2.76,0 -5,-2.24 -5,-5 z"
       copytype="single_stretched"
       prop_scale="1"
       scale_y_rel="false"
       spacing="0"
       normal_offset="0"
       tang_offset="0"
       prop_units="false"
       vertical_pattern="false"
       fuse_tolerance="0" />
  </defs>
  <sodipodi:namedview
     id="base"
     pagecolor="#ffffff"
     bordercolor="#666666"
     borderopacity="1.0"
     inkscape:pageopacity="0.0"
     inkscape:pageshadow="2"
     inkscape:zoom="5.5858586"
     inkscape:cx="50"
     inkscape:cy="49.5"
     inkscape:document-units="px"
     inkscape:current-layer="layer1"
     showgrid="false"
     units="px"
     inkscape:window-width="1230"
     inkscape:window-height="756"
     inkscape:window-x="1310"
     inkscape:window-y="74"
     inkscape:window-maximized="0"
     showguides="false" />
  <metadata
     id="metadata7">
    <rdf:RDF>
      <cc:Work
         rdf:about="">
        <dc:format>image/svg+xml</dc:format>
        <dc:type
           rdf:resource="http://purl.org/dc/dcmitype/StillImage" />
        <dc:title></dc:title>
      </cc:Work>
    </rdf:RDF>
  </metadata>
  <g
     inkscape:label="Layer 1"
     inkscape:groupmode="layer"
     id="layer1"
     transform="translate(0,-953.36216)">
    <path
       style="fill:none;stroke:#ef0000;stroke-opacity:1"
       d="m 97.142857,1008.0765 a 41.42857,38.57143 0 0 1 -41.42857,38.5714 41.42857,38.57143 0 0 1 -41.42857,-38.5714 41.42857,38.57143 0 0 1 41.42857,-38.57145 41.42857,38.57143 0 0 1 41.42857,38.57145 z"
       id="path3338" />
    <ellipse
       style="fill:none;stroke:#ef0000;stroke-opacity:1"
       id="path3369"
       cx="-421.42856"
       cy="166.64787"
       rx="72.85714"
       ry="57.142857" />
    <path
       style="fill:none;stroke:#ef0000;stroke-opacity:1"
       id="path3371"
       sodipodi:type="arc"
       sodipodi:cx="-117.91274"
       sodipodi:cy="-332.69345"
       sodipodi:rx="40"
       sodipodi:ry="32.857143"
       sodipodi:start="2.0147047"
       sodipodi:end="1.1128793"
       d="m -135.09164,-303.02082 a 40,32.857143 0 0 1 -21.87047,-36.79339 40,32.857143 0 0 1 38.7692,-25.73558 40,32.857143 0 0 1 39.204266,25.28695 40,32.857143 0 0 1 -21.240866,37.04143 l -17.68323,-29.47204 z"
       transform="matrix(0,-1,1,0,0,0)" />
    <ellipse
       style="fill:none;stroke:#ef0000;stroke-opacity:1"
       id="path3399"
       cx="-468.57144"
       cy="96.647865"
       rx="34.285713"
       ry="67.14286" />
    <ellipse
       style="fill:none;stroke:#ef0000;stroke-opacity:1"
       id="path3401"
       cx="-448.57144"
       cy="62.36216"
       rx="28.571428"
       ry="78.571426" />
    <ellipse
       style="fill:none;stroke:#ef0000;stroke-opacity:1"
       id="path3403"
       cx="-464.28571"
       cy="223.79076"
       rx="18.571428"
       ry="25.714285" />
    <ellipse
       style="fill:none;stroke:#ef0000;stroke-opacity:1"
       id="path3405"
       cx="-410"
       cy="232.36217"
       rx="15.714286"
       ry="17.142857" />
    <path
       style="fill:#0000ff;stroke:#ef0000;stroke-width:2.85714293;stroke-opacity:1"
       d="m -476.84416,-709.15584 c -5.29028,-5.29029 -7.00223,-10.02773 -6.96923,-19.28572 0.024,-6.75 1.2166,-14.12642 2.6501,-16.39205 1.81963,-2.87594 0.51281,-6.60736 -4.32947,-12.36208 -3.8147,-4.5335 -6.93581,-9.3522 -6.93581,-10.7082 0,-1.356 -4.82143,-2.96979 -10.71429,-3.5862 -5.89285,-0.61641 -1.71428,-1.18476 9.28572,-1.263 11.91107,-0.0847 16.7122,0.5877 11.87087,1.66256 l -8.12914,1.80482 6.04487,7.668 c 5.12016,6.49499 7.57555,7.41961 16.05092,6.04425 11.28767,-1.83174 19.66772,3.65973 22.43988,14.70489 2.11,8.40692 17.55844,12.22276 24.40375,6.02784 3.08633,-2.7931 9.91617,-3.97936 20.6869,-3.59308 14.09018,0.50533 17.43906,-0.50421 27.06996,-8.16038 14.15277,-11.25087 24.6415,-31.07607 22.81124,-43.11652 -0.75214,-4.94804 -5.69237,-15.23375 -10.97829,-22.85715 -10.90067,-15.72102 -27.78109,-25.62678 -48.50979,-28.46649 -13.17802,-1.8053 -13.4444,-1.6831 -17.50211,8.02834 -5.4649,13.07936 -24.13387,38.86071 -30.67505,42.36144 -7.97163,4.26629 -15.52523,3.35121 -23.38753,-2.83327 -7.62503,-5.99786 -10.76791,-5.1026 -10.76791,3.06727 0,3.7496 2.78351,5.35679 10.71428,6.18638 8.28176,0.86629 7.14658,1.21986 -5,1.55729 -8.64285,0.2401 -14.2412,-0.50806 -12.44077,-1.66257 5.41436,-3.4719 5.33329,-21.05293 -0.17975,-38.98092 -9.99892,-32.51572 -0.95035,-85.44107 16.57047,-96.92116 3.8225,-2.5046 7.68012,-9.76967 10.00579,-18.84397 2.08169,-8.12234 6.97898,-18.56384 10.88285,-23.20333 21.15179,-25.13748 41.94368,8.72737 42.18405,68.70742 0.0661,16.5 -0.78043,34.02111 -1.88122,38.93579 l -2.00145,8.93579 14.00525,1.34573 c 7.70288,0.74015 20.49639,4.55816 28.43001,8.48447 l 14.42477,7.13874 0,-9.705 c 0,-20.66443 15.94357,-37.99266 34.95674,-37.99266 9.07441,0 13.26221,1.93323 21.04326,9.71428 5.34286,5.34286 9.71429,10.89182 9.71429,12.33103 0,1.43921 -5.1045,5.48563 -11.34333,8.99205 -6.23882,3.50641 -12.02481,7.47798 -12.85775,8.82569 -0.83293,1.34772 4.27539,5.84345 11.35184,9.99053 l 12.86626,7.54013 -4.34259,8.39764 c -5.73841,11.09686 -19.58128,18.10677 -31.83096,16.11892 -9.15499,-1.48565 -9.5604,-1.16728 -9.6205,7.55507 -0.13935,20.22333 -16.84584,42.72778 -38.40752,51.73683 -8.02918,3.3548 -9.0469,4.95223 -7.94373,12.46859 2.40905,16.41389 -18.05439,27.32725 -28.85747,15.38998 -2.6007,-2.87374 -4.72854,-8.65945 -4.72854,-12.85714 0,-4.68377 -1.56535,-7.63217 -4.05203,-7.63217 -2.22862,0 -5.91095,-0.71334 -8.18297,-1.58519 -2.8638,-1.09894 -4.66089,1.06467 -5.85867,7.05357 -2.11089,10.55445 -11.29166,20.2459 -19.17905,20.2459 -3.21429,0 -9,-3.15584 -12.85715,-7.01298 z m 21.55845,-1.55845 c 3.14285,-3.14285 5.90714,-7.64285 6.14285,-10 0.23572,-2.35714 0.55715,-5.51901 0.71429,-7.02638 0.15714,-1.50737 -6.09078,-5.96886 -13.88427,-9.91443 -15.85914,-8.02891 -18.56951,-6.68945 -18.64341,9.21354 -0.0289,6.22855 2.33004,11.78938 6.96924,16.42857 8.50162,8.50163 11.30378,8.69622 18.7013,1.2987 z m 54.28571,0 c 11.13015,-11.13015 6.10666,-19.45972 -10.71429,-17.76561 -10.47495,1.05498 -12.14285,2.1406 -12.14285,7.90371 0,5.98816 9.18499,15.57619 14.92144,15.57619 1.22178,0 4.79284,-2.57143 7.9357,-5.71429 z m -5.71429,-22.85714 c 3.48422,-2.25167 3.11501,-2.77782 -1.97423,-2.81339 -3.44298,-0.0241 -7.05457,1.24196 -8.02577,2.81339 -2.2482,3.63768 4.3711,3.63768 10,0 z m -42.85714,-6.2036 c 0,-5.30283 -8.96362,-13.7964 -14.55992,-13.7964 -9.18056,0 -8.77018,5.51036 0.84707,11.37388 10.83833,6.608 13.71285,7.11582 13.71285,2.42252 z m -4.8587,-59.92671 c 8.66276,-8.66276 8.7723,-9.06704 3.03198,-11.19052 -3.2755,-1.21169 -8.68849,-5.67755 -12.02886,-9.92415 l -6.0734,-7.72107 -8.60694,9.21375 c -10.55449,11.29862 -10.73487,15.0923 -1.07877,22.68779 10.15834,7.99055 14.20019,7.49 24.75599,-3.0658 z m 133.48732,-1.04212 c 7.39575,-3.82449 16.27374,-14.80102 13.74572,-16.99488 -0.52017,-0.45142 -7.17257,-4.65739 -14.7831,-9.34661 l -13.83734,-8.52586 14.55162,-8.9537 c 8.0034,-4.92453 14.55162,-10.137 14.55162,-11.58327 0,-5.28858 -17.7934,-17.42325 -25.54819,-17.42325 -15.48752,0 -31.59466,19.82856 -31.59466,38.89436 0,9.26696 13.32527,31.14358 21.34491,35.04276 8.21756,3.99542 12.0819,3.79664 21.56942,-1.10955 z m -153.24526,-47.39821 c -2.17513,-8.38535 -3.95479,-27.18018 -3.95479,-41.7663 0,-16.70222 -1.11625,-26.5202 -3.01521,-26.5202 -1.65836,0 -6.44988,7.39286 -10.64781,16.42857 -6.46414,13.91356 -7.64277,20.36511 -7.69907,42.14286 -0.0371,14.35984 1.621,30.48359 3.75514,36.51528 l 3.82163,10.801 10.84745,-11.17756 10.84744,-11.17755 -3.95478,-15.2461 z m 29.96412,30.7269 c 1.75451,-2.11405 4.00122,-7.89976 4.9927,-12.85714 2.10587,-10.52938 -2.35583,-11.81153 -16.19635,-4.65432 -10.0811,5.21314 -10.23131,6.21187 -2.21722,14.74248 7.18699,7.65021 9.05069,8.03472 13.42087,2.76898 z m 14.60877,-21.32488 c 0.0241,-2.05702 -1.24196,-2.94543 -2.81339,-1.97424 -1.57143,0.9712 -2.83746,4.58279 -2.81339,8.02577 0.0356,5.08924 0.56171,5.45845 2.81339,1.97423 1.5233,-2.35714 2.78933,-5.96873 2.81339,-8.02576 z m -13.14845,-4.58002 8.23637,-1.97916 -1.84701,-18.02794 c -2.57386,-25.12226 -9.36025,-43.19759 -19.38587,-51.63359 -11.7183,-9.86031 -16.05001,-9.09835 -18.36283,3.23005 -2.36765,12.62067 0.36687,52.67461 4.60477,67.44843 3.00944,10.49125 3.23757,10.63556 10.7963,6.82954 4.24705,-2.13849 11.42827,-4.7788 15.95827,-5.86733 z m 17.99526,-12.39422 c 3.90852,-18.99319 2.31404,-63.90222 -2.88752,-81.32806 -6.16473,-20.65258 -15.61092,-32.29405 -24.03479,-29.62042 -6.06793,1.92589 -15.68745,18.9884 -19.05895,33.80563 -1.56918,6.89629 -0.94385,7.85714 5.1135,7.85714 8.79933,0 23.25637,16.14202 27.43824,30.63619 1.7126,5.93581 3.89778,19.47095 4.85596,30.0781 1.9401,21.47715 5.23904,24.77527 8.57356,8.57142 z"
       id="path3409"
       inkscape:connector-curvature="0"
       transform="translate(0,953.36216)" />
    <path
       style="fill:#0000ff;stroke:#ef0000;stroke-width:2.85714293;stroke-opacity:1"
       d="m -439.05157,-740.23251 c -3.42878,-3.59258 -7.51986,-8.79012 -9.09129,-11.5501 -1.77681,-3.12068 -7.71865,-5.63383 -15.71428,-6.64648 -16.65977,-2.10995 -22.02657,-6.04201 -14.98163,-10.97649 2.82872,-1.9813 8.22036,-4.05058 11.98143,-4.59839 9.1356,-1.33064 11.20798,-8.10505 2.52401,-8.25072 -6.01174,-0.10085 -5.8107,-0.48467 2.04641,-3.90701 10.40418,-4.53178 21.65274,-17.36763 33.28976,-37.98729 4.69845,-8.3252 10.14414,-15.13672 12.10153,-15.13672 8.4825,0 31.1851,8.65881 39.66909,15.12986 5.07656,3.87208 12.82523,13.64558 17.21928,21.7189 7.22957,13.28308 7.66827,15.65113 4.61405,24.90551 -1.85632,5.62471 -8.79971,15.88816 -15.42977,22.80766 -11.22354,11.71354 -13.07965,12.58092 -26.92188,12.58092 -8.17699,0 -19.41344,1.89953 -24.9699,4.22116 -9.5827,4.00391 -10.42352,3.88498 -16.33681,-2.31081 z"
       id="path3411"
       inkscape:connector-curvature="0"
       transform="translate(0,953.36216)" />
    <path
       style="fill:#0000ff;stroke:#ef0000;stroke-width:2.85714293;stroke-opacity:1"
       d="m -338.6213,-801.62939 c -6.39473,-2.60672 -16.17923,-15.41182 -19.87318,-26.00828 -2.15546,-6.18317 -2.07274,-11.445 0.2926,-18.61205 3.65171,-11.06479 17.67734,-24.46457 25.60721,-24.46457 5.49896,0 20.1661,10.32444 20.1661,14.19525 0,1.29356 -6.56154,6.56245 -14.58121,11.70866 l -14.58121,9.35673 16.00741,9.93693 c 13.07579,8.11707 15.39188,10.6786 12.64645,13.98665 -3.00215,3.61736 -17.88935,12.55357 -20.06384,12.04354 -0.4709,-0.11046 -3.00004,-1.07473 -5.62033,-2.14286 z"
       id="path3413"
       inkscape:connector-curvature="0"
       transform="translate(0,953.36216)" />
    <path
       style="fill:#0000ff;stroke:#ef0000;stroke-width:2.85714293;stroke-opacity:1"
       d=""
       id="path3415"
       inkscape:connector-curvature="0"
       transform="translate(0,953.36216)" />
    <path
       style="fill:#0000ff;stroke:#ef0000;stroke-width:2.85714293;stroke-opacity:1"
       d="m -414.24303,-705.62438 c -0.75896,-1.22802 -0.12349,-2.23276 1.41216,-2.23276 1.53565,0 4.61153,-0.69819 6.83529,-1.55153 2.35487,-0.90365 4.0432,0.20029 4.0432,2.64371 0,4.30264 -9.77571,5.20984 -12.29065,1.14058 z"
       id="path3417"
       inkscape:connector-curvature="0"
       transform="translate(0,953.36216)" />
    <path
       style="fill:#0000ff;stroke:#ef0000;stroke-width:2.85714293;stroke-opacity:1"
       d="m -417.57143,-714.14286 c -6.42382,-6.42382 -3.80934,-10.85714 6.40281,-10.85714 11.67068,0 14.78191,3.54997 8.56223,9.76966 -5.39351,5.39351 -10.3023,5.75022 -14.96504,1.08748 z"
       id="path3419"
       inkscape:connector-curvature="0"
       transform="translate(0,953.36216)" />
    <path
       style="fill:#0000ff;stroke:#ef0000;stroke-width:2.85714293;stroke-opacity:1"
       d="m -472.2212,-715.38531 c -6.51262,-8.27945 -8.05,-23.90677 -2.35023,-23.88972 5.88068,0.0176 22.14286,11.0529 22.14286,15.02587 0,4.71231 -8.11082,16.39202 -11.38321,16.39202 -1.36827,0 -5.15251,-3.38768 -8.40942,-7.52817 z"
       id="path3421"
       inkscape:connector-curvature="0"
       transform="translate(0,953.36216)" />
    <path
       style="fill:#0000ff;stroke:#ef0000;stroke-width:2.85714293;stroke-opacity:1"
       d=""
       id="path3423"
       inkscape:connector-curvature="0"
       transform="translate(0,953.36216)" />
    <path
       style="fill:#0000ff;stroke:#ef0000;stroke-width:2.85714293;stroke-opacity:1"
       d="m -453.97916,-739.08829 c 0.90409,-1.46285 0.33711,-3.4673 -1.25995,-4.45433 -1.59706,-0.98704 -2.90375,-3.16188 -2.90375,-4.83298 0,-1.91597 1.58319,-1.72444 4.28572,0.51846 4.92931,4.09096 5.73825,11.42857 1.25995,11.42857 -1.66417,0 -2.28606,-1.19688 -1.38197,-2.65972 z"
       id="path3425"
       inkscape:connector-curvature="0"
       transform="translate(0,953.36216)" />
    <path
       style="fill:#ff2a2a;stroke:#ef0000;stroke-width:2.85714293;stroke-opacity:1"
       d="m -467.02382,-736.26208 c -3.75833,-3.12987 -5.47192,-5.73344 -3.80798,-5.78572 4.42965,-0.13918 14.40403,7.71366 12.37492,9.74278 -0.95349,0.95349 -4.80861,-0.82719 -8.56694,-3.95706 z"
       id="path3427"
       inkscape:connector-curvature="0"
       transform="translate(0,953.36216)" />
    <path
       style="fill:#ff2a2a;stroke:#ef0000;stroke-width:2.85714293;stroke-opacity:1"
       d="m -466.47786,-845.80672 c -4.01814,-10.56851 -6.86089,-59.60717 -3.90295,-67.32764 l 2.56918,-6.70579 8.9185,7.50442 c 9.67576,8.14161 16.53123,25.36968 19.53364,49.0888 1.792,14.15676 1.59572,14.70191 -6.32413,17.5649 -4.49544,1.62509 -10.40565,3.85976 -13.13381,4.96595 -3.65062,1.48022 -5.67322,0.13612 -7.66043,-5.09064 z"
       id="path3429"
       inkscape:connector-curvature="0"
       transform="translate(0,953.36216)" />
    <path
       style="fill:#ff2a2a;stroke:#ef0000;stroke-width:2.85714293;stroke-opacity:1"
       d="m -493.44963,-825.10531 c -1.00985,-5.04922 -1.81954,-20.26969 -1.79932,-33.82326 0.03,-20.12638 1.29785,-27.26111 6.91751,-38.92857 l 6.88074,-14.28572 0.22535,21.19454 c 0.12394,11.65699 1.66748,29.47585 3.43008,39.59746 3.20353,18.39602 3.20153,18.40613 -5.30678,26.91444 l -8.5115,8.51151 -1.83608,-9.1804 z"
       id="path3431"
       inkscape:connector-curvature="0"
       transform="translate(0,953.36216)" />
    <path
       style="fill:#ff2a2a;stroke:#ef0000;stroke-width:2.85714293;stroke-opacity:1"
       d="m -479.68891,-796.61866 c -3.07506,-4.97555 0.4272,-6.02926 4.34589,-1.30753 2.25357,2.71538 2.47032,4.35476 0.57577,4.35476 -1.6711,0 -3.88585,-1.37125 -4.92166,-3.04723 z"
       id="path3433"
       inkscape:connector-curvature="0"
       transform="translate(0,953.36216)" />
    <path
       style="fill:#ff2a2a;stroke:#ef0000;stroke-width:2.85714293;stroke-opacity:1"
       d="m -471.56174,-797.37734 c -1.26247,-2.11403 -4.66073,-5.13104 -7.55169,-6.70446 -4.97485,-2.7076 -4.87942,-3.29892 1.78219,-11.04351 l 7.03849,-8.18273 8.80017,8.30594 c 6.81995,6.43694 8.07908,9.17479 5.59564,12.16715 -5.88154,7.08682 -13.17449,9.62768 -15.6648,5.45761 z"
       id="path3435"
       inkscape:connector-curvature="0"
       transform="translate(0,953.36216)" />
    <path
       style="fill:#ffaaaa;stroke:#ef0000;stroke-width:2.85714293;stroke-opacity:1"
       d="m -454.71429,-822.71429 c -4.9753,-4.9753 -4.31271,-6.67993 4.08351,-10.5055 9.34411,-4.25746 10.55067,-3.14313 6.92429,6.39497 -3.15462,8.29729 -5.82418,9.29415 -11.0078,4.11053 z"
       id="path3437"
       inkscape:connector-curvature="0"
       transform="translate(0,953.36216)" />
    <path
       style="fill:#0000ff;stroke:#ef0000;stroke-width:2.85714293;stroke-opacity:1"
       d="m -430.51363,-867.85714 c -1.30393,-8.64286 -3.62311,-20.60859 -5.15373,-26.5905 -3.25198,-12.70923 -20.81669,-33.4095 -28.34882,-33.4095 -4.89273,0 -4.95104,-0.75533 -0.96209,-12.46226 2.33548,-6.85424 6.98312,-15.39986 10.32809,-18.99027 l 6.08177,-6.52801 6.59075,7.6622 c 11.24093,13.06836 15.54381,34.25122 14.643,72.08684 -0.72387,30.40378 -1.05557,32.30611 -3.17897,18.2315 z"
       id="path3439"
       inkscape:connector-curvature="0"
       transform="translate(0,953.36216)" />
    <path
       style="fill:#0000ff;fill-rule:evenodd;stroke:none;stroke-width:1px;stroke-linecap:butt;stroke-linejoin:miter;stroke-opacity:1"
       d="m -491.42857,180.93359 c 0.56972,3.68128 -106.30244,19.33744 -240.86313,37.44596 4e-5,-2.6e-4 5e-5,-2.8e-4 5e-5,-2.8e-4 -0.009,-0.31418 0.008,-0.6048 0.007,-0.89772 -0.007,-1.53591 -0.16729,-2.9598 -0.49371,-4.29374 1.35849,-0.53654 2.59735,-0.9131 3.67957,-1.23954 2.25331,-0.69254 4.51475,-1.35527 6.78534,-1.99723 6.38803,-1.80609 12.83062,-3.44153 19.03987,-5.0383 79.33011,-19.62881 177.1063,-40.06119 204.01423,-45.5583 0,0 10e-6,1e-5 10e-6,1e-5 3.05564,5.5882 4.87108,10.1355 5.60058,14.5247 0.40162,3.0233 -0.006,5.56339 -1.12512,7.50109 0,0 0,0 0,0 -1.02117,1.6591 -2.48139,2.36885 -3.42682,2.59518 -1.18546,0.0728 -1.75708,0.009 -1.78827,-0.17935 0,0 -1e-5,0 -1e-5,0 0,0 0,0 0,0 -6.9e-4,-0.005 -6.6e-4,-0.005 -6.6e-4,-0.005 0,0 -2e-5,0 -5.2e-4,-0.005 0,0 0,0 0,0 0,0 0,0 0,0 -0.011,-0.19218 0.51589,-0.50246 1.44938,-0.90308 0.65623,-0.4212 1.51022,-1.19758 1.91932,-2.42046 0,-1e-5 0,-1e-5 0,-1e-5 0.62747,-1.5902 0.48762,-3.3662 -0.0709,-6.07344 -0.63567,-3.76895 -1.91433,-7.09311 -4.03756,-11.87566 0,0 0,0 0,0 -1.82637,0.48288 -149.41649,38.33912 -200.03382,52.05217 -6.22337,1.62316 -12.60823,3.25315 -18.82003,5.00834 -2.21079,0.62468 -4.40059,1.26528 -6.57083,1.931 -1.13541,0.35449 -2.11387,0.63746 -2.90184,0.96 -0.62171,-1.21597 -1.0798,-2.52382 -1.36225,-3.90129 -0.0537,-0.26288 -0.11447,-0.53467 -0.13633,-0.7897 -10e-6,-1.9e-4 -2e-5,-1.7e-4 -2e-5,-1.7e-4 132.32853,-23.18772 238.56594,-40.52839 239.13684,-36.8395 z"
       id="path3451"
       inkscape:path-effect="#path-effect3453"
       inkscape:original-d="m -491.42857,180.93359 -240,37.14286 c 0,0 0,-2.85715 231.42857,-57.14286 11.42857,22.85714 0,22.85714 0,22.85714"
       inkscape:connector-curvature="0" />
    <path
       style="fill:#0000ff;stroke:#ef0000;stroke-opacity:1"
       id="path3455"
       d="m 461.979,607.36593 c 9.09085,-12.1178 19.68715,-23.0152 29.36322,-34.66864 11.7486,-16.07348 24.65101,-31.29153 36.60628,-47.19991 11.27122,-14.99813 14.45532,-20.47156 25.02304,-36.6132 24.59368,-39.754 50.18879,-78.86579 77.08999,-117.09344 14.52459,-20.50389 29.60132,-40.60301 44.73923,-60.65436 5.8246,-7.55812 11.42646,-15.28497 17.29746,-22.80731 13.79671,-15.28902 37.47946,-36.78784 44.01713,-14.74586 1.36473,4.60125 1.72391,8.62647 2.39928,13.41041 2.5469,19.29237 5.39744,38.54072 8.33473,57.7769 2.80724,21.3283 5.6073,42.63832 9.46516,63.80559 4.98186,22.85286 9.16243,45.85645 13.14492,68.90186 3.48049,20.4818 7.57003,40.85335 11.33092,61.28457 1.73523,10.04074 3.07443,20.13414 4.77075,30.18138 1.68494,7.37168 2.88843,14.85179 4.87445,22.14975 2.51962,7.64584 6.23578,15.51937 3.45715,23.51428 -22.39763,27.58256 -37.1967,24.28742 -62.10452,21.30784 -32.71859,-2.57203 -65.45977,-4.80221 -98.14812,-7.80046 -34.58911,-3.22776 -68.89439,-8.76462 -103.41987,-12.53703 -14.8103,-2.68549 -30.03473,-2.75221 -44.83606,-5.33745 -5.90081,-1.80121 -12.15935,-1.6018 -18.09948,-3.01849 -3.51691,-0.85767 -1.77258,-0.46282 -5.23207,-1.18858 0,0 34.73781,-24.11724 34.73781,-24.11724 l 0,0 c 3.434,0.77575 1.71866,0.39784 5.14595,1.13396 5.96655,0.87088 11.94898,1.55077 17.79473,3.11788 14.35014,2.42057 28.89097,3.73477 43.23724,6.21743 33.92627,4.55678 67.67144,10.52245 101.79523,13.53952 20.79862,1.82248 41.56187,3.4186 62.42315,4.33825 10.11394,0.44587 20.24356,0.49908 30.3546,1.0065 2.66521,0.13375 5.31762,0.45603 7.97644,0.68404 5.72553,0.54 11.57846,1.3529 17.34653,0.94153 1.15399,-0.0823 4.40774,-1.12634 3.43442,-0.50096 -28.85031,18.53703 -46.33107,24.00812 -31.19633,19.10345 0.62552,-0.41551 1.43875,-0.63641 1.87656,-1.24653 3.21771,-4.4841 -2.07277,-14.64479 -3.37734,-19.05487 -2.29485,-7.4083 -3.35266,-15.06034 -5.17555,-22.59313 -1.49661,-10.18296 -2.77237,-20.36177 -3.90955,-30.59318 -3.12143,-20.62402 -7.20329,-41.0849 -10.60221,-61.66341 -3.82219,-23.02738 -8.38581,-45.91555 -13.35877,-68.72025 -3.96231,-21.17174 -6.66683,-42.51418 -9.65316,-63.83993 -3.00105,-19.15709 -5.62365,-38.3715 -8.87286,-57.48961 -0.79458,-4.66631 -1.11161,-7.80128 -2.56525,-12.17933 -0.33454,-1.00756 -0.76321,-1.99316 -1.31075,-2.90271 -0.0745,-0.12384 -0.55818,0.0784 -0.43361,0.005 11.67448,-6.87194 23.42155,-13.61982 35.13233,-20.42973 -0.62662,0.37026 -1.25324,0.74053 -1.87985,1.11079 -6.80385,7.07486 -11.96598,15.61757 -18.41972,23.01082 -15.83603,20.40553 -32.04119,40.53487 -47.10376,61.53225 -27.55963,37.98741 -53.63797,77.01248 -77.86547,117.2207 -7.13626,11.39034 -15.61488,25.39041 -23.57264,36.40213 -3.26189,4.51369 -6.91473,8.73172 -10.33349,13.12778 -8.59243,11.04873 -16.79771,22.36849 -25.10967,33.62714 -9.02527,11.40369 -18.89957,22.1188 -27.8125,33.57795 0,0 -38.7761,16.96585 -38.7761,16.96585 z"
       inkscape:connector-curvature="0" />
    <path
       style="fill:#0000ff;stroke:#ef0000;stroke-width:2.85714293;stroke-opacity:1"
       d="m 676.44119,-348.17066 c -24.59444,-2.18494 -139.95692,-17.80488 -157.96404,-21.38815 -7.59249,-1.51084 -7.4218,-1.83673 17.87009,-34.11864 14.0447,-17.92627 34.08747,-45.80732 44.5395,-61.95788 51.96228,-80.29259 69.51032,-106.35029 93.29768,-138.54105 14.22807,-19.25444 26.18682,-34.69048 26.57499,-34.3023 0.38818,0.38818 4.02904,23.18682 8.09079,50.66366 4.06176,27.47683 10.5267,66.02931 14.36655,85.67216 8.76962,44.86127 17.38832,94.64159 21.51819,124.28572 1.75139,12.57143 3.83557,25.10714 4.63152,27.85714 1.30196,4.49826 -0.93753,4.96057 -22.31678,4.60709 -13.07018,-0.216 -35.844,-1.46609 -50.60849,-2.77775 z"
       id="path3457"
       inkscape:connector-curvature="0"
       transform="translate(0,953.36216)" />
    <path
       style="fill:#0000ff;stroke:#ef0000;stroke-opacity:1"
       id="path3459"
       transform="matrix(0.90923612,-0.41628077,0.41628077,0.90923612,0,0)"
       sodipodi:type="arc"
       sodipodi:cx="-726.73163"
       sodipodi:cy="369.04828"
       sodipodi:rx="50.21907"
       sodipodi:ry="162.85715"
       sodipodi:start="6.0128002"
       sodipodi:end="6.0458624"
       d="m -678.33711,325.54872 a 50.21907,162.85715 0 0 1 0.41695,5.21161 l -48.81147,38.28795 z" />
    <path
       sodipodi:type="star"
       style="fill:#0000ff;stroke:#ef0000;stroke-opacity:1"
       id="path3467"
       sodipodi:sides="3"
       sodipodi:cx="37.142857"
       sodipodi:cy="452.36215"
       sodipodi:r1="198.97697"
       sodipodi:r2="57.567082"
       sodipodi:arg1="-1.2036225"
       sodipodi:arg2="-0.78213524"
       inkscape:flatsided="false"
       inkscape:rounded="0.18"
       inkscape:randomized="0"
       d="m 108.57143,266.64787 c 25.80403,-6.85624 -34.740443,118.76647 -30.589896,145.14125 5.95173,37.82044 94.266936,158.32866 84.280326,195.28913 -6.96434,25.77506 -85.484562,-89.46934 -110.401062,-99.06225 -35.72933,-13.75587 -184.250108,2.47323 -211.265518,-24.65566 -18.83968,-18.91883 120.225005,-29.29713 140.990958,-46.079 29.7776,-24.06457 89.983174,-160.80189 126.985192,-170.63347 z"
       inkscape:transform-center-x="-1.0749245"
       inkscape:transform-center-y="-1.1021207" />
    <path
       style="fill:#0000ff;stroke:#ef0000;stroke-opacity:1"
       id="path3469"
       sodipodi:type="arc"
       sodipodi:cx="40.81736"
       sodipodi:cy="997.49146"
       sodipodi:rx="4.8336349"
       sodipodi:ry="3.8490055"
       sodipodi:start="6.0127989"
       sodipodi:end="6.0458554"
       d="m 45.475378,996.46337 a 4.8336349,3.8490055 0 0 1 0.04013,0.12315 l -4.698144,0.90494 z" />
    <path
       style="fill:#0000ff;stroke:#ef0000;stroke-opacity:1"
       id="path3474"
       sodipodi:type="arc"
       sodipodi:cx="50.93219"
       sodipodi:cy="1004.921"
       sodipodi:rx="7.9665461"
       sodipodi:ry="7.5189872"
       sodipodi:start="6.0127989"
       sodipodi:end="6.0458554"
       d="m 58.609294,1002.9127 a 7.9665461,7.5189872 0 0 1 0.06613,0.2405 l -7.743237,1.7678 z" />
    <path
       style="fill:#0000ff;stroke:#ef0000;stroke-opacity:1"
       id="path3476"
       sodipodi:type="arc"
       sodipodi:cx="52.990959"
       sodipodi:cy="986.39203"
       sodipodi:rx="9.6672697"
       sodipodi:ry="5.2811933"
       sodipodi:start="6.0127989"
       sodipodi:end="6.0458554"
       d="m 62.306995,984.9814 a 9.6672697,5.2811933 0 0 1 0.08025,0.16898 l -9.396289,1.24165 z" />
    <path
       style="fill:#0000ff;stroke:#ef0000;stroke-opacity:1"
       id="path3478"
       sodipodi:type="arc"
       sodipodi:cx="56.57143"
       sodipodi:cy="992.03125"
       sodipodi:rx="0.89511752"
       sodipodi:ry="5.3707051"
       sodipodi:start="6.0127989"
       sodipodi:end="6.0458554"
       d="m 57.434026,990.59671 a 0.89511752,5.3707051 0 0 1 0.0074,0.17184 l -0.870027,1.2627 z" />
    <ellipse
       style="fill:#0000ff;stroke:#ef0000;stroke-opacity:1"
       id="path3480"
       cx="25.868896"
       cy="965.98334"
       rx="7.250452"
       ry="1.7007233" />
  </g>
</svg>
